<svg xmlns="http://www.w3.org/2000/svg" data-name="Redwave logo" viewBox="0 0 278.61 89.62" fill="currentColor"><g><g><path style="fill:var(--brand-orange)" d="M61.98,30.44c-5.86,5.79-11.63,11.68-17.36,17.47-.65.66-1.72.67-2.39.01-2.52-2.49-4.94-4.88-7.44-7.35-.68-.67-.67-1.77.02-2.43,1.72-1.63,3.48-3.31,5.37-5.1,1.11-1.05.37-2.92-1.16-2.92h-20.81c-.46,0-.87.18-1.17.47L.45,14c.28-.31.68-.51,1.13-.54.21-.01.42-.02.63-.02,17.57,0,35.14.06,52.71-.02,4.59-.02,8.07,1.57,9.86,5.88,1.8,4.31.43,7.94-2.8,11.14Z"></path><path style="fill:var(--brand-orange)" d="M83.77,56.29h-5.42v-31.92h17.09c1.47,0,2.72.23,3.74.69,1.03.46,1.85,1.09,2.48,1.88.63.8,1.09,1.72,1.38,2.78.29,1.06.44,2.18.44,3.38,0,1.87-.38,3.4-1.13,4.59-.75,1.19-1.86,2.14-3.33,2.85,1.74.25,3.1,1.1,4.07,2.55s1.45,3.28,1.45,5.49v7.72h-5.47v-7.17c0-1.87-.38-3.27-1.13-4.2-.75-.93-1.78-1.4-3.1-1.4-.86,0-1.84.21-2.94.64-1.07.4-2.1.8-3.08,1.22s-1.85.88-2.6,1.4c-.75.52-1.35,1.12-1.79,1.79-.44.67-.67,1.47-.67,2.39v5.33ZM97.91,32.87c0-1.16-.27-2.07-.8-2.73-.54-.66-1.51-.99-2.92-.99h-10.43v13.73c.52-.55,1.13-1.04,1.81-1.47.69-.43,1.41-.82,2.16-1.17.75-.35,1.52-.67,2.3-.96.78-.29,1.51-.57,2.18-.85.8-.34,1.55-.67,2.25-.99.7-.32,1.31-.69,1.81-1.1s.9-.9,1.19-1.45c.29-.55.44-1.22.44-2.02Z"></path><path style="fill:var(--brand-orange)" d="M131.12,45.91h-18.56c.09,1.19.37,2.21.83,3.05.46.84,1.03,1.54,1.7,2.09.67.55,1.42.96,2.25,1.22.83.26,1.65.39,2.48.39,1.32,0,2.54-.31,3.67-.92,1.13-.61,1.88-1.47,2.25-2.57l5.37-.05c-.31,1.32-.83,2.48-1.56,3.49-.73,1.01-1.61,1.85-2.62,2.53-1.01.67-2.13,1.19-3.35,1.54-1.22.35-2.48.53-3.77.53-1.53,0-3.03-.25-4.5-.76-1.47-.51-2.79-1.27-3.95-2.3-1.16-1.03-2.11-2.33-2.82-3.9-.72-1.58-1.08-3.42-1.08-5.53s.34-3.89,1.03-5.42c.69-1.53,1.6-2.82,2.73-3.86,1.13-1.04,2.41-1.81,3.84-2.32,1.42-.51,2.89-.76,4.39-.76s2.9.25,4.29.73c1.39.49,2.63,1.22,3.72,2.2,1.09.98,1.97,2.2,2.64,3.65.67,1.45,1.01,3.15,1.01,5.08v1.88ZM126.07,42.05c-.49-1.68-1.36-2.94-2.6-3.77-1.24-.83-2.57-1.24-3.97-1.24s-2.73.41-3.97,1.24-2.12,2.08-2.64,3.77h13.18Z"></path><path style="fill:var(--brand-orange)" d="M153.4,23.54v12.13c-.98-1.05-2.17-1.82-3.56-2.35-1.39-.52-2.84-.78-4.34-.78-1.41,0-2.81.24-4.2.73-1.39.49-2.64,1.24-3.75,2.25-1.1,1.01-1.99,2.28-2.67,3.81-.67,1.53-1.01,3.34-1.01,5.42s.35,3.9,1.06,5.46c.7,1.56,1.64,2.86,2.8,3.88,1.16,1.02,2.49,1.79,3.97,2.32,1.48.52,3.01.78,4.57.78s3.04-.26,4.52-.78c1.49-.52,2.81-1.29,3.97-2.32,1.17-1.03,2.1-2.32,2.8-3.88.7-1.56,1.06-3.38,1.06-5.46v-22.81c0-.24-.21-.44-.45-.42-1.52.1-3.01,1.31-4.45,1.6-.2.04-.34.21-.34.41ZM152.87,47.68c-.35.91-.84,1.7-1.47,2.39-.63.69-1.37,1.24-2.23,1.63-.86.4-1.81.6-2.85.6s-2-.2-2.87-.6c-.87-.39-1.62-.94-2.25-1.63-.63-.69-1.12-1.48-1.47-2.39-.35-.9-.53-1.88-.53-2.92s.17-2.02.53-2.94c.35-.92.84-1.72,1.47-2.39.63-.67,1.38-1.21,2.25-1.61.88-.39,1.83-.59,2.87-.59s1.99.2,2.85.59c.86.4,1.6.94,2.23,1.61.63.67,1.11,1.47,1.47,2.39.35.92.53,1.9.53,2.94s-.18,2.02-.53,2.92Z"></path><path d="M196.44,32.78v12.26c0,1.96-.31,3.67-.92,5.14-.61,1.47-1.45,2.7-2.5,3.67-1.06.98-2.28,1.72-3.67,2.2-1.39.49-2.89.73-4.48.73h-11.07c-1.59,0-3.09-.24-4.48-.73-1.39-.49-2.61-1.22-3.65-2.2-1.04-.98-1.87-2.2-2.48-3.67-.61-1.47-.92-3.18-.92-5.14v-12.26h5.19v12.72c0,1.1.17,2.08.51,2.92.34.84.79,1.54,1.36,2.09.57.55,1.24.96,2.02,1.24s1.6.41,2.46.41h2.94v-19.38h5.24v19.38h2.89c.89,0,1.71-.14,2.48-.41.77-.28,1.44-.69,2.02-1.24.58-.55,1.03-1.25,1.35-2.09.32-.84.48-1.81.48-2.92v-12.72h5.24Z"></path><path d="M224.32,44.81v10.93c0,.58-.47,1.06-1.06,1.06h-3.07c-.58,0-1.06-.47-1.06-1.06v-2.85c-.83,1.47-1.96,2.56-3.4,3.26-1.44.7-2.99,1.06-4.64,1.06-1.38,0-2.76-.26-4.13-.78-1.38-.52-2.62-1.3-3.72-2.34-1.1-1.04-1.99-2.33-2.66-3.88-.67-1.55-1.01-3.35-1.01-5.4s.35-3.9,1.06-5.47c.7-1.56,1.64-2.85,2.8-3.88,1.16-1.03,2.49-1.8,3.97-2.32,1.49-.52,3.01-.78,4.57-.78s3.04.26,4.52.78c1.49.52,2.81,1.29,3.97,2.32,1.16,1.03,2.1,2.32,2.8,3.88.7,1.56,1.06,3.38,1.06,5.47ZM212.01,52.34c1.04,0,2-.2,2.87-.6.87-.4,1.62-.93,2.25-1.61.63-.67,1.12-1.47,1.47-2.39.35-.92.53-1.9.53-2.94s-.18-2.01-.53-2.92c-.35-.9-.84-1.7-1.47-2.39-.63-.69-1.38-1.23-2.25-1.63-.87-.4-1.83-.6-2.87-.6s-2,.2-2.87.6c-.87.4-1.62.94-2.25,1.63-.63.69-1.12,1.49-1.47,2.39-.35.9-.53,1.88-.53,2.92s.18,2.02.53,2.94c.35.92.84,1.71,1.47,2.39.63.67,1.38,1.21,2.25,1.61.87.4,1.83.6,2.87.6Z"></path><path d="M251.93,32.78l-6.52,19.2c-.64,1.87-1.46,3.21-2.46,4.02-1,.81-2.4,1.22-4.2,1.22s-3.25-.41-4.23-1.22c-.98-.81-1.79-2.15-2.43-4.02l-6.52-19.2h5.51l5.74,17.59c.21.61.44,1.08.69,1.4.24.32.66.48,1.24.48s.99-.16,1.22-.48.45-.79.67-1.4l5.79-17.59h5.51Z"></path><path d="M276.46,45.91h-18.56c.09,1.19.37,2.21.83,3.05.46.84,1.03,1.54,1.7,2.09.67.55,1.42.96,2.25,1.22.83.26,1.65.39,2.48.39,1.32,0,2.54-.31,3.67-.92,1.13-.61,1.88-1.47,2.25-2.57l5.37-.05c-.31,1.32-.83,2.48-1.56,3.49s-1.61,1.85-2.62,2.53c-1.01.67-2.13,1.19-3.35,1.54-1.22.35-2.48.53-3.77.53-1.53,0-3.03-.25-4.5-.76-1.47-.51-2.79-1.27-3.95-2.3s-2.11-2.33-2.82-3.9c-.72-1.58-1.08-3.42-1.08-5.53s.34-3.89,1.03-5.42c.69-1.53,1.6-2.82,2.73-3.86,1.13-1.04,2.41-1.81,3.84-2.32,1.42-.51,2.89-.76,4.39-.76s2.9.25,4.29.73c1.39.49,2.63,1.22,3.72,2.2,1.09.98,1.97,2.2,2.64,3.65.67,1.45,1.01,3.15,1.01,5.08v1.88ZM271.4,42.05c-.49-1.68-1.35-2.94-2.6-3.77s-2.57-1.24-3.97-1.24-2.73.41-3.97,1.24c-1.24.83-2.12,2.08-2.64,3.77h13.18Z"></path><path d="M82.24,84.72v-10.47h1.48v1.52c.34-.56.79-1,1.35-1.31.56-.31,1.19-.46,1.88-.46.83,0,1.55.17,2.16.52s1.07.88,1.38,1.59c.35-.66.85-1.18,1.5-1.55.65-.37,1.34-.56,2.07-.56,1.21,0,2.2.37,2.96,1.1.76.73,1.14,1.88,1.14,3.44v6.19h-1.48v-6.02c0-1.15-.23-2.01-.7-2.58-.46-.56-1.12-.84-1.96-.84s-1.6.35-2.2,1.04c-.59.69-.89,1.68-.89,2.98v5.43h-1.48v-6.02c0-1.15-.23-2.01-.7-2.58-.46-.56-1.12-.84-1.96-.84s-1.6.35-2.2,1.04-.89,1.68-.89,2.98v5.43h-1.48Z"></path><path d="M117.04,84.97c-.87,0-1.6-.15-2.17-.44-.58-.29-1.01-.69-1.29-1.17-.28-.49-.42-1-.42-1.53,0-1.15.42-2.03,1.26-2.64.84-.61,1.94-.91,3.3-.91.58,0,1.12.05,1.62.14s.92.19,1.25.31v-.44c0-.99-.25-1.73-.75-2.25-.5-.51-1.18-.77-2.04-.77-.73,0-1.36.15-1.89.45-.53.3-.85.81-.98,1.53h-1.54c.08-.76.34-1.38.78-1.86.44-.48.97-.83,1.62-1.06.64-.22,1.31-.34,2.02-.34,1.45,0,2.52.4,3.22,1.19.7.79,1.04,1.83,1.04,3.09v3.53c0,.51.03.87.1,1.1.06.22.18.36.34.41.16.05.38.07.67.07h.17v1.33h-.32c-.65,0-1.18-.12-1.59-.36-.42-.24-.68-.72-.79-1.46-.31.58-.75,1.07-1.32,1.47-.57.4-1.33.6-2.27.6ZM117.18,83.7c.7,0,1.31-.18,1.82-.55.51-.37.9-.84,1.17-1.41s.41-1.18.41-1.82c-.34-.1-.76-.19-1.26-.27-.5-.08-1-.13-1.51-.13-1.15,0-1.97.22-2.45.65s-.72.97-.72,1.6c0,.55.22,1.01.65,1.37.44.37,1.06.55,1.88.55Z"></path><path d="M138.42,84.72v-10.47h1.48v1.67c.22-.55.54-.97.95-1.28s.92-.45,1.52-.45h1.69v1.41h-1.84c-.42,0-.81.12-1.16.37s-.63.65-.84,1.22c-.21.57-.32,1.34-.32,2.31v5.21h-1.48Z"></path><path d="M159.05,84.72v-15.2h1.48v15.2h-1.48ZM160.27,80.94l-.21-1.56,5.57-5.13h1.88l-7.24,6.69ZM166.12,84.72l-4.48-5.76.97-1.03,5.43,6.8h-1.92Z"></path><path d="M186.6,84.97c-.99,0-1.86-.23-2.62-.69s-1.36-1.1-1.79-1.92c-.44-.82-.65-1.79-.65-2.9s.21-2.08.64-2.89c.43-.82,1.03-1.45,1.8-1.9.77-.45,1.66-.68,2.66-.68s1.88.23,2.6.69c.72.46,1.27,1.05,1.65,1.78.38.73.57,1.52.57,2.36v.44c0,.16,0,.33-.02.53h-8.76v-1.27h7.35c-.04-1.03-.39-1.83-1.03-2.41s-1.45-.87-2.41-.87c-.63,0-1.22.14-1.77.42s-.99.69-1.33,1.24-.51,1.21-.51,2.02v.57c0,.94.18,1.73.53,2.35.35.63.81,1.09,1.36,1.39.56.3,1.14.45,1.74.45.79,0,1.45-.18,1.98-.55.54-.37.92-.87,1.14-1.52h1.44c-.17.63-.46,1.2-.87,1.71s-.92.9-1.54,1.19-1.34.43-2.15.43Z"></path><path d="M209.55,84.72c-.54,0-.99-.07-1.36-.21-.37-.14-.66-.4-.84-.77-.19-.37-.29-.9-.29-1.59v-6.63h-1.82v-1.27h1.82v-2.43h1.48v2.43h3.12v1.27h-3.12v6.35c0,.51.04.87.12,1.1.08.22.23.36.46.41.23.05.59.07,1.07.07h1.29v1.27h-1.92Z"></path><path d="M226.29,72.11v-2.17h2.11v2.17h-2.11ZM226.63,84.72v-10.47h1.48v10.47h-1.48Z"></path><path d="M243.71,84.72v-10.47h1.48v1.82c.35-.65.84-1.15,1.48-1.52.63-.37,1.34-.55,2.11-.55,1.21,0,2.19.37,2.93,1.1.75.73,1.12,1.88,1.12,3.44v6.19h-1.48v-6.02c0-1.15-.24-2.01-.73-2.58-.49-.56-1.19-.84-2.1-.84s-1.75.35-2.39,1.04-.95,1.68-.95,2.98v5.43h-1.48Z"></path><path d="M273.27,89.62c-.93,0-1.76-.16-2.5-.49-.74-.32-1.35-.78-1.84-1.36s-.81-1.28-.96-2.08h1.46c.24.77.7,1.41,1.39,1.9.69.49,1.51.74,2.45.74.73,0,1.39-.16,1.97-.48.58-.32,1.04-.79,1.38-1.42.34-.63.51-1.41.51-2.32v-1.58c-.23.41-.53.8-.92,1.17-.39.37-.86.68-1.4.92s-1.18.36-1.9.36c-.97,0-1.86-.24-2.66-.72-.8-.48-1.44-1.13-1.91-1.96-.47-.83-.71-1.77-.71-2.83s.24-2,.71-2.82c.47-.82,1.11-1.47,1.91-1.94.8-.47,1.7-.71,2.68-.71s1.82.22,2.55.67c.73.44,1.28.98,1.65,1.59v-2.01h1.48v9.86c0,1.13-.22,2.1-.67,2.92-.45.82-1.08,1.46-1.88,1.91-.8.45-1.73.68-2.79.68ZM273.1,83.68c.75,0,1.42-.18,2.02-.53.6-.35,1.07-.85,1.42-1.49s.52-1.38.52-2.21-.17-1.58-.52-2.21c-.34-.63-.82-1.11-1.42-1.46-.6-.34-1.27-.52-2.02-.52s-1.42.17-2.02.52-1.07.83-1.41,1.46c-.35.63-.52,1.36-.52,2.21s.17,1.57.52,2.21c.34.64.82,1.14,1.41,1.49.6.35,1.27.53,2.02.53Z"></path><path d="M50.62,74.69l-7.1,7.09c-.68.69-1.8.66-2.43-.07,0,0-.01,0-.01-.01-4.29-4.93-9.12-9.39-14.15-14.38-.66-.66-1.74-.66-2.4.01-7.29,7.34-14.4,14.5-21.64,21.79-1.07,1.07-2.89.32-2.89-1.19V15.15c0-.44.17-.84.45-1.15l16.59,16.59c-.32.31-.52.74-.52,1.22v19.77c0,1.53,1.85,2.27,2.91,1.18,1.5-1.57,3.01-3.14,4.49-4.68.65-.68,1.74-.69,2.41-.02,8.24,8.22,16.27,16.23,24.29,24.24.66.65.66,1.73,0,2.39Z"></path><path style="fill:var(--brand-orange)" d="M227.12,18.56s-.08.02-.12.04c-.43.13-.88.26-1.35.38-.02,0-.05.01-.07.02-.42.11-.86.22-1.31.32-.13.03-.27.06-.41.09-.35.08-.7.15-1.06.22-.18.03-.36.06-.53.1-.34.06-.69.12-1.04.17-.2.03-.4.06-.6.09-.35.05-.71.09-1.08.13-.21.02-.41.05-.62.07-.39.04-.8.07-1.2.1-.19.01-.38.03-.57.04-.52.03-1.05.05-1.59.06-.09,0-.17,0-.26,0-.64.01-1.29,0-1.96,0-.13,0-.27-.01-.41-.02-.53-.02-1.06-.04-1.6-.08-.22-.01-.44-.04-.66-.05-.47-.04-.95-.08-1.44-.13-.25-.03-.49-.06-.74-.09-.48-.06-.96-.13-1.45-.2-.25-.04-.5-.08-.76-.12-.51-.09-1.03-.18-1.56-.29-.24-.05-.47-.09-.71-.14-.18-.04-.37-.09-.56-.13-.42-.1-.85-.19-1.28-.3-.16-.04-.32-.08-.49-.12-.31-.08-.64-.18-.96-.27-.26-.07-.51-.14-.77-.22-.28-.08-.55-.15-.83-.24-.15-.04-.29-.1-.44-.15-.41-.13-.82-.27-1.23-.41-.31-.11-.62-.2-.94-.32-.55-.2-1.11-.42-1.67-.64-.31-.12-.62-.23-.93-.36-.02,0-.05-.02-.07-.03-.2-.08-.4-.18-.6-.26-.37-.16-.74-.32-1.11-.48-.05-.02-.1-.04-.15-.07-.29-.13-.58-.25-.88-.39-.19-.09-.39-.19-.59-.29-.4-.19-.81-.39-1.21-.59-.18-.09-.36-.18-.55-.27-.16-.08-.31-.15-.46-.23-.39-.2-.79-.43-1.18-.64-.25-.13-.5-.27-.75-.41-.06-.03-.12-.06-.18-.1-.25-.14-.5-.27-.76-.41-.12-.07-.24-.14-.36-.21-.45-.26-.91-.54-1.36-.81-.15-.09-.3-.18-.46-.27-.1-.06-.19-.11-.29-.17-.16-.1-.31-.18-.47-.28-.27-.17-.55-.36-.83-.54-.23-.14-.45-.3-.68-.45-.45-.3-.9-.58-1.36-.89-.04-.03-.08-.05-.13-.08-.13-.09-.27-.17-.4-.26-.43-.29-.86-.57-1.29-.85-.22-.14-.43-.26-.64-.4-.43-.26-.86-.53-1.29-.78-.22-.12-.43-.24-.64-.36-.21-.12-.43-.24-.64-.36-.43-.23-.86-.45-1.29-.67-.21-.11-.43-.22-.64-.32-.22-.1-.43-.21-.64-.31-.22-.1-.43-.19-.64-.29s-.43-.2-.64-.29c-.43-.19-.86-.36-1.29-.52-.21-.08-.43-.18-.64-.26-.22-.08-.43-.15-.64-.23-.21-.08-.43-.15-.64-.23-.21-.07-.43-.15-.64-.22-.22-.07-.43-.13-.64-.2-.21-.07-.43-.14-.64-.2-.43-.12-.86-.23-1.29-.34-.21-.05-.43-.11-.64-.16-.22-.05-.43-.09-.64-.14-.21-.05-.43-.09-.64-.14-.22-.04-.43-.08-.64-.12-.22-.04-.43-.07-.64-.11s-.43-.08-.64-.11c-.22-.03-.43-.05-.64-.08-.21-.03-.43-.06-.64-.08-.21-.02-.43-.05-.64-.07-.22-.02-.43-.03-.64-.05-.21-.02-.43-.04-.64-.05-.22-.01-.43-.02-.64-.03-.21,0-.43-.02-.64-.02-.21,0-.43-.01-.64-.01-.22,0-.43,0-.64,0s-.43,0-.64,0c-.22,0-.43.02-.64.03-.22,0-.43.02-.64.03-.22.01-.43.03-.64.04-.22.02-.43.04-.64.06-.21.02-.42.03-.62.06-.14.02-.28.04-.42.06-.08,0-.16.02-.24.03-.15.02-.29.04-.44.06-.07,0-.14.02-.21.03-.15.02-.3.05-.46.07,0,0-.01,0-.02,0-.23.04-.45.08-.68.12-.04,0-.09.01-.13.02-.18.03-.37.06-.55.1-.03,0-.06.01-.1.02-.02,0-.04,0-.06.01-.18.04-.35.07-.53.11-.23.05-.46.09-.68.14,0,0,0,0-.01,0,0,0,0,0,0,0-.15.03-.29.07-.44.11-.07.02-.15.04-.22.05-.23.06-.46.11-.68.17-.2.05-.4.11-.59.17-.02,0-.04.01-.06.02h-.03c-.23.07-.45.14-.68.2-.02,0-.05.02-.07.02-.15.05-.3.09-.45.14-.05.01-.09.03-.14.04,0,0-.01,0-.02,0-.23.07-.45.14-.68.22-.01,0-.02,0-.04.01-.14.05-.27.09-.41.14-.07.02-.14.05-.21.07,0,0-.02,0-.03,0-.23.08-.45.16-.68.25,0,0-.02,0-.03.01-.11.04-.23.08-.34.13-.09.04-.18.07-.28.11-.01,0-.02,0-.03.01-.23.09-.45.18-.68.27h-.02c-.09.05-.19.08-.28.12-.12.05-.23.1-.35.15h-.03c-.23.11-.45.21-.68.31h-.02c-.07.04-.14.07-.2.1-.14.06-.27.13-.41.19-.02,0-.03.01-.05.02-.23.11-.45.21-.68.32,0,0-.01,0-.02.01-.04.02-.09.04-.13.06-.15.07-.3.15-.45.23-.02.01-.05.02-.07.04-.23.11-.46.23-.68.34,0,0-.01,0-.02,0-.02.01-.04.02-.06.03-.15.08-.29.16-.44.23-.05.03-.11.06-.16.09-.23.12-.46.24-.68.37-.23.13-.45.26-.68.39-.08.04-.15.09-.23.13-.13.07-.26.15-.39.22-.01,0-.03.02-.04.02,0,0-.02,0-.02.01-.23.14-.45.27-.68.41-.03.02-.07.04-.1.06-.15.09-.29.18-.44.27-.04.02-.07.05-.11.07-.01,0-.02.01-.03.02-.23.14-.45.29-.68.43-.03.02-.06.04-.09.06-.13.08-.25.16-.38.24-.05.04-.11.07-.16.11-.02.01-.03.02-.05.03-.23.15-.46.3-.68.46-.06.04-.12.08-.18.12-.07.05-.15.1-.22.15-.05.03-.1.07-.14.1-.05.03-.09.07-.14.1-.04.03-.08.06-.12.09-.08.05-.16.11-.24.17-.07.05-.15.11-.22.16-.03.02-.07.05-.1.07-.23.17-.45.33-.68.5,0,0-.02.01-.03.02-.09.06-.17.13-.26.19-.11.09-.23.17-.34.26-.02.01-.04.03-.06.04-.23.17-.46.35-.68.52-.23.18-.45.36-.68.54-.01.01-.03.02-.04.04-.04.04-.09.07-.13.11-.12.1-.24.2-.36.29-.05.04-.1.08-.14.12-.23.19-.46.38-.68.56-.23.19-.46.39-.68.58-.01.01-.02.02-.04.03-.01,0-.02.02-.03.03-.08.07-.15.13-.23.2-.13.11-.26.22-.39.34-.23.2-.46.4-.68.61-.23.21-.46.42-.68.62-.23.21-.46.43-.68.64-.07.06-.13.13-.2.19-.12.12-.25.23-.37.35h0s-.08.08-.12.11c-.03.03-.07.07-.1.1-.14.14-.29.28-.43.42h0c-.05.05-.1.1-.15.15-.14.14-.28.28-.42.42-.02.02-.05.05-.07.07h0c-.06.06-.13.13-.19.19-.23.24-.46.47-.68.7-.12.13-.24.25-.36.38-.02.02-.04.04-.06.06h0c-.09.09-.18.19-.26.28-.04.04-.08.09-.12.13-.09.09-.17.19-.26.28h0c-.1.11-.2.22-.3.32-.03.03-.05.06-.08.09-.09.1-.18.2-.27.29h0c-.11.13-.23.25-.34.37-.02.02-.03.04-.05.06-.09.1-.17.19-.26.29h0c-.12.14-.25.29-.37.42-.02.03-.05.05-.07.08-.07.08-.13.15-.2.23h0c-.14.16-.28.32-.41.48-.03.03-.05.06-.07.09-.05.06-.11.13-.16.19h0c-.15.18-.3.36-.45.53-.02.02-.03.04-.05.06-.05.06-.1.12-.15.18h0c-.16.2-.33.4-.48.59,0,0-.01.01-.02.02-.05.06-.1.12-.15.18h0c-.18.22-.36.45-.52.65,0,0,0,0,0,.01-.04.05-.08.1-.12.15h0c-.2.25-.39.5-.56.72,0,0,0,0,0,0-.03.04-.06.07-.08.11h0c-.37.49-.69.93-.93,1.26-.38.54-.6.85-.62.9,0,0,0,0,0,0,0,0,0,0,0,0,.06-.04.64-.43,1.63-1.04.21-.13.43-.27.68-.41.21-.13.44-.26.68-.4.21-.13.45-.26.68-.4.22-.13.44-.25.68-.39.22-.12.45-.25.68-.38.22-.12.45-.25.68-.37.22-.12.45-.24.68-.37.22-.12.45-.24.68-.36.22-.12.45-.23.68-.35.22-.12.45-.23.68-.35.22-.11.45-.23.68-.34.23-.11.45-.22.68-.34.22-.11.45-.22.68-.33.23-.11.45-.22.68-.33.22-.1.45-.21.68-.31.22-.1.45-.21.68-.31.23-.1.45-.2.68-.31.22-.1.45-.2.68-.29.23-.1.45-.2.68-.29.22-.09.45-.19.68-.28.22-.09.45-.18.68-.28.23-.09.45-.19.68-.28.22-.09.45-.17.68-.26.23-.09.45-.17.68-.26.23-.09.45-.17.68-.26.22-.08.45-.16.68-.24.23-.08.45-.16.68-.24.23-.08.45-.16.68-.24.22-.08.45-.14.68-.22s.45-.15.68-.22c.23-.07.45-.15.68-.22.22-.07.45-.13.68-.2.23-.07.45-.13.68-.2.23-.06.45-.13.68-.2.23-.06.45-.12.68-.18.23-.06.45-.12.68-.17.23-.06.45-.12.68-.17.23-.05.45-.1.68-.16.23-.05.45-.1.68-.15.23-.05.45-.1.68-.15.23-.05.45-.09.68-.14.23-.04.45-.08.68-.12.23-.04.45-.08.68-.12.23-.04.45-.08.68-.12.23-.03.45-.06.68-.09.23-.03.45-.06.68-.09s.45-.07.68-.09c.23-.03.45-.04.68-.07.23-.02.45-.04.68-.06.23-.02.45-.04.68-.06.23-.02.45-.03.68-.04.23-.01.45-.02.68-.03.23,0,.45-.02.68-.03.23,0,.45-.02.68-.02.23,0,.45,0,.68,0s.45,0,.68.01.45,0,.68.01c.23,0,.45.03.68.04.23.01.45.03.68.05.23.02.45.03.68.05.23.02.45.05.68.07.23.03.45.06.68.09.23.03.45.06.68.09.23.04.45.07.68.11.23.04.45.1.68.14s.45.09.68.14.46.09.68.14c.23.06.45.13.68.19.23.06.45.13.68.19.23.07.46.12.68.19.23.07.45.16.68.24.23.08.45.16.68.25.23.08.46.16.68.25.23.09.45.2.68.29.23.1.45.21.68.31.23.11.46.2.68.31.09.04.17.08.26.12.14.07.28.14.42.21.23.12.45.23.68.34.23.11.45.23.68.34.23.11.45.23.68.34.23.11.45.22.68.33s.45.22.68.33c.45.22.91.44,1.36.65.23.11.45.22.68.32.23.11.45.21.68.32.23.11.45.21.68.31.23.1.45.21.68.31.23.1.45.21.68.31.23.1.45.2.68.3.45.2.91.4,1.36.59.23.1.45.19.68.28.23.09.45.19.68.28.23.09.45.19.68.28.23.09.45.18.68.27.45.18.91.36,1.36.53.23.09.45.17.68.25.23.08.45.17.68.25.45.16.91.33,1.36.48.23.08.45.15.68.23.45.15.91.3,1.36.44.23.07.45.14.68.21.45.14.91.28,1.36.41.23.06.45.12.68.19.45.12.91.25,1.36.37.45.11.91.22,1.36.32.23.05.45.11.68.16.45.1.91.18,1.36.27.45.09.91.17,1.36.25.45.08.91.15,1.36.22.45.07.91.12,1.36.18.68.08,1.36.15,2.04.21.68.06,1.36.1,2.04.13.68.03,1.36.04,2.04.04.9,0,1.81-.03,2.72-.08,10.15-.6,20.57-4.58,31.28-14.07-.14.1-2.84,1.9-7.62,3.35Z"></path></g></g></svg>