<svg xmlns="http://www.w3.org/2000/svg" viewBox="-13.3 6.5 90 90"><path fill="#ff6600" d="M61.98,30.44c-5.86,5.79-11.63,11.68-17.36,17.47-.65.66-1.72.67-2.39.01-2.52-2.49-4.94-4.88-7.44-7.35-.68-.67-.67-1.77.02-2.43,1.72-1.63,3.48-3.31,5.37-5.1,1.11-1.05.37-2.92-1.16-2.92h-20.81c-.46,0-.87.18-1.17.47L.45,14c.28-.31.68-.51,1.13-.54.21-.01.42-.02.63-.02,17.57,0,35.14.06,52.71-.02,4.59-.02,8.07,1.57,9.86,5.88,1.8,4.31.43,7.94-2.8,11.14Z"></path><path fill="#ff6600" d="M50.62,74.69l-7.1,7.09c-.68.69-1.8.66-2.43-.07,0,0-.01,0-.01-.01-4.29-4.93-9.12-9.39-14.15-14.38-.66-.66-1.74-.66-2.4.01-7.29,7.34-14.4,14.5-21.64,21.79-1.07,1.07-2.89.32-2.89-1.19V15.15c0-.44.17-.84.45-1.15l16.59,16.59c-.32.31-.52.74-.52,1.22v19.77c0,1.53,1.85,2.27,2.91,1.18,1.5-1.57,3.01-3.14,4.49-4.68.65-.68,1.74-.69,2.41-.02,8.24,8.22,16.27,16.23,24.29,24.24.66.65.66,1.73,0,2.39Z"></path></svg>
